<svg width="500" height="500" viewBox="0 0 500 500" fill="none" xmlns="http://www.w3.org/2000/svg">
<path d="M250 270.162C256.697 270.162 262.131 264.821 262.131 258.231C262.131 251.64 256.703 246.293 250 246.293C243.296 246.293 237.875 251.634 237.875 258.231C237.875 264.827 243.302 270.162 250 270.162Z" fill="black"/>
<path d="M329.724 256.915C359.319 256.915 383.311 233.306 383.311 204.183C383.311 175.06 359.319 151.451 329.724 151.451C300.129 151.451 276.137 175.06 276.137 204.183C276.137 233.306 300.129 256.915 329.724 256.915Z" fill="black"/>
<path d="M170.269 256.915C199.864 256.915 223.856 233.306 223.856 204.183C223.856 175.06 199.864 151.451 170.269 151.451C140.673 151.451 116.682 175.06 116.682 204.183C116.682 233.306 140.673 256.915 170.269 256.915Z" fill="black"/>
<path d="M454.738 352.693L417.892 331.754C430.337 307.099 437.374 279.355 437.374 250.015C437.374 220.734 430.374 193.05 417.977 168.437L454.853 147.486C464.219 165.52 471.207 184.941 475.375 205.344H500C489.654 149.319 460.31 99.7249 418.805 63.2881L406.16 84.1857C420.052 96.8552 432.322 111.216 442.704 126.886L405.87 147.813C374.342 101.41 322.013 69.8313 262.104 66.0506V24.1543C285.391 25.351 307.771 29.9413 328.777 37.5085L341.362 16.73C312.986 5.95373 282.19 0 250.003 0C217.816 0 187.02 5.95373 158.644 16.73L171.229 37.5085C192.235 29.9413 214.615 25.351 237.903 24.1543V66.0506C177.993 69.8313 125.664 101.404 94.1361 147.813L57.3021 126.886C67.6843 111.21 79.9543 96.8552 93.8457 84.1857L81.2006 63.2881C39.6897 99.7309 10.346 149.325 0 205.35H24.6246C28.7932 184.941 35.7813 165.52 45.1471 147.486L82.0235 168.437C69.6265 193.05 62.6263 220.734 62.6263 250.015C62.6263 279.361 69.6628 307.105 82.1082 331.754L45.256 352.693C35.8539 334.611 28.8174 315.143 24.6246 294.656H0C10.588 352.288 41.3838 403.133 84.8247 439.808L97.4698 419.029C82.1203 405.645 68.6524 390.249 57.3989 373.293L94.2329 352.365C125.767 398.691 178.053 430.198 237.896 433.973V475.84C216.285 474.738 195.466 470.726 175.821 464.099L163.176 484.937C190.281 494.701 219.504 500 249.997 500C280.49 500 309.713 494.701 336.818 484.937L324.173 464.099C304.528 470.726 283.709 474.738 262.098 475.84V433.973C321.941 430.198 374.227 398.691 405.761 352.365L442.589 373.293C431.342 390.249 417.868 405.645 402.518 419.029L415.163 439.808C458.604 403.133 489.4 352.288 499.988 294.656H475.363C471.177 315.143 464.14 334.611 454.738 352.693ZM249.997 89.4488C337.919 89.4488 409.778 158.238 413.015 243.99C311.08 289.423 201.492 289.292 86.9968 243.597C90.4333 158.03 162.214 89.4488 249.997 89.4488ZM346.801 379.181C332.305 389.731 315.993 397.989 298.399 403.377V299.675C314.674 297.936 330.81 295.21 346.801 291.495V379.181ZM153.193 289.631C169.432 293.465 185.568 296.412 201.595 298.443V403.371C184.001 397.983 167.689 389.725 153.193 379.175V289.631ZM225.796 300.842C235.652 301.532 245.483 302.009 255.249 302.009C261.589 302.009 267.894 301.777 274.198 301.485V408.807C266.296 409.968 258.219 410.581 249.997 410.581C241.775 410.581 233.698 409.968 225.796 408.807V300.842ZM88.0919 269.668C101.796 274.842 115.421 279.337 128.992 283.266V357.617C107.017 333.706 92.2787 303.271 88.0919 269.668ZM371.002 357.611V285.029C384.706 280.944 398.307 276.176 411.781 270.609C407.437 303.837 392.771 333.927 371.002 357.611Z" fill="black"/>
</svg>
