<svg width="28" height="28" viewBox="0 0 48 48" fill="none" xmlns="http://www.w3.org/2000/svg">
<g clip-path="url(#clip0_929_140)">
<path d="M24 4C16.26 4 10 10.26 10 18C10 28.5 24 44 24 44C24 44 38 28.5 38 18C38 10.26 31.74 4 24 4ZM14 18C14 12.48 18.48 8 24 8C29.52 8 34 12.48 34 18C34 23.76 28.24 32.38 24 37.76C19.84 32.42 14 23.7 14 18Z" fill="#262626"/>
<path d="M27.75 18C27.75 20.0711 26.0711 21.75 24 21.75C21.9289 21.75 20.25 20.0711 20.25 18C20.25 15.9289 21.9289 14.25 24 14.25C26.0711 14.25 27.75 15.9289 27.75 18Z" stroke="#262626" stroke-width="2.5"/>
</g>
<defs>
<clipPath id="clip0_929_140">
<rect width="48" height="48" fill="white"/>
</clipPath>
</defs>
</svg>
